<mxfile host="app.diagrams.net" agent="Mozilla/5.0 (Macintosh; Intel Mac OS X 10_15_7) AppleWebKit/537.36 (KHTML, like Gecko) Chrome/130.0.0.0 Safari/537.36" version="24.9.3">
  <diagram name="第 1 页" id="XjLHqymZY1Ndrv7Uf900">
    <mxGraphModel dx="1781" dy="557" grid="1" gridSize="10" guides="1" tooltips="1" connect="1" arrows="1" fold="1" page="1" pageScale="1" pageWidth="827" pageHeight="1169" math="0" shadow="0">
      <root>
        <mxCell id="0" />
        <mxCell id="1" parent="0" />
        <mxCell id="KWE5zhtzk0raKSziC6Md-1" value="主服务" style="rounded=0;whiteSpace=wrap;html=1;" vertex="1" parent="1">
          <mxGeometry x="160" y="80" width="80" height="40" as="geometry" />
        </mxCell>
        <mxCell id="KWE5zhtzk0raKSziC6Md-2" value="redis" style="rounded=0;whiteSpace=wrap;html=1;" vertex="1" parent="1">
          <mxGeometry x="360" y="80" width="80" height="40" as="geometry" />
        </mxCell>
        <mxCell id="KWE5zhtzk0raKSziC6Md-4" value="" style="endArrow=none;html=1;rounded=0;entryX=0.5;entryY=1;entryDx=0;entryDy=0;" edge="1" parent="1" target="KWE5zhtzk0raKSziC6Md-1">
          <mxGeometry width="50" height="50" relative="1" as="geometry">
            <mxPoint x="200" y="560" as="sourcePoint" />
            <mxPoint x="230" y="140" as="targetPoint" />
          </mxGeometry>
        </mxCell>
        <mxCell id="KWE5zhtzk0raKSziC6Md-5" value="" style="endArrow=none;html=1;rounded=0;entryX=0.5;entryY=1;entryDx=0;entryDy=0;" edge="1" parent="1">
          <mxGeometry width="50" height="50" relative="1" as="geometry">
            <mxPoint x="399.5" y="560" as="sourcePoint" />
            <mxPoint x="399.5" y="120" as="targetPoint" />
          </mxGeometry>
        </mxCell>
        <mxCell id="KWE5zhtzk0raKSziC6Md-7" value="" style="endArrow=classic;html=1;rounded=0;" edge="1" parent="1">
          <mxGeometry width="50" height="50" relative="1" as="geometry">
            <mxPoint x="200" y="180" as="sourcePoint" />
            <mxPoint x="400" y="180" as="targetPoint" />
          </mxGeometry>
        </mxCell>
        <mxCell id="KWE5zhtzk0raKSziC6Md-12" value="添加到缓存" style="edgeLabel;html=1;align=center;verticalAlign=middle;resizable=0;points=[];" vertex="1" connectable="0" parent="KWE5zhtzk0raKSziC6Md-7">
          <mxGeometry x="-0.23" y="1" relative="1" as="geometry">
            <mxPoint as="offset" />
          </mxGeometry>
        </mxCell>
        <mxCell id="KWE5zhtzk0raKSziC6Md-8" value="客户端" style="rounded=0;whiteSpace=wrap;html=1;" vertex="1" parent="1">
          <mxGeometry x="-40" y="80" width="80" height="40" as="geometry" />
        </mxCell>
        <mxCell id="KWE5zhtzk0raKSziC6Md-9" value="" style="endArrow=none;html=1;rounded=0;entryX=0.5;entryY=1;entryDx=0;entryDy=0;" edge="1" parent="1">
          <mxGeometry width="50" height="50" relative="1" as="geometry">
            <mxPoint x="-1" y="560" as="sourcePoint" />
            <mxPoint x="-1" y="120" as="targetPoint" />
          </mxGeometry>
        </mxCell>
        <mxCell id="KWE5zhtzk0raKSziC6Md-10" value="" style="endArrow=classic;html=1;rounded=0;" edge="1" parent="1">
          <mxGeometry width="50" height="50" relative="1" as="geometry">
            <mxPoint y="150" as="sourcePoint" />
            <mxPoint x="200" y="150" as="targetPoint" />
          </mxGeometry>
        </mxCell>
        <mxCell id="KWE5zhtzk0raKSziC6Md-11" value="请求充值" style="edgeLabel;html=1;align=center;verticalAlign=middle;resizable=0;points=[];" vertex="1" connectable="0" parent="KWE5zhtzk0raKSziC6Md-10">
          <mxGeometry x="-0.21" y="2" relative="1" as="geometry">
            <mxPoint as="offset" />
          </mxGeometry>
        </mxCell>
        <mxCell id="KWE5zhtzk0raKSziC6Md-13" value="" style="endArrow=classic;html=1;rounded=0;" edge="1" parent="1">
          <mxGeometry width="50" height="50" relative="1" as="geometry">
            <mxPoint x="200" y="170" as="sourcePoint" />
            <mxPoint y="170" as="targetPoint" />
          </mxGeometry>
        </mxCell>
        <mxCell id="KWE5zhtzk0raKSziC6Md-14" value="写入表并返回钱包地址" style="edgeLabel;html=1;align=center;verticalAlign=middle;resizable=0;points=[];" vertex="1" connectable="0" parent="KWE5zhtzk0raKSziC6Md-13">
          <mxGeometry x="-0.21" y="2" relative="1" as="geometry">
            <mxPoint as="offset" />
          </mxGeometry>
        </mxCell>
        <mxCell id="KWE5zhtzk0raKSziC6Md-15" value="" style="group" vertex="1" connectable="0" parent="1">
          <mxGeometry x="560" y="80" width="80" height="480" as="geometry" />
        </mxCell>
        <mxCell id="KWE5zhtzk0raKSziC6Md-3" value="充值服务器" style="rounded=0;whiteSpace=wrap;html=1;" vertex="1" parent="KWE5zhtzk0raKSziC6Md-15">
          <mxGeometry width="80" height="40" as="geometry" />
        </mxCell>
        <mxCell id="KWE5zhtzk0raKSziC6Md-6" value="" style="endArrow=none;html=1;rounded=0;entryX=0.5;entryY=1;entryDx=0;entryDy=0;" edge="1" parent="KWE5zhtzk0raKSziC6Md-15">
          <mxGeometry width="50" height="50" relative="1" as="geometry">
            <mxPoint x="39.5" y="480" as="sourcePoint" />
            <mxPoint x="39.5" y="40" as="targetPoint" />
          </mxGeometry>
        </mxCell>
        <mxCell id="KWE5zhtzk0raKSziC6Md-16" value="" style="group" vertex="1" connectable="0" parent="1">
          <mxGeometry x="760" y="80" width="80" height="480" as="geometry" />
        </mxCell>
        <mxCell id="KWE5zhtzk0raKSziC6Md-17" value="链" style="rounded=0;whiteSpace=wrap;html=1;" vertex="1" parent="KWE5zhtzk0raKSziC6Md-16">
          <mxGeometry width="80" height="40" as="geometry" />
        </mxCell>
        <mxCell id="KWE5zhtzk0raKSziC6Md-18" value="" style="endArrow=none;html=1;rounded=0;entryX=0.5;entryY=1;entryDx=0;entryDy=0;" edge="1" parent="KWE5zhtzk0raKSziC6Md-16">
          <mxGeometry width="50" height="50" relative="1" as="geometry">
            <mxPoint x="39.5" y="480" as="sourcePoint" />
            <mxPoint x="39.5" y="40" as="targetPoint" />
          </mxGeometry>
        </mxCell>
        <mxCell id="KWE5zhtzk0raKSziC6Md-19" value="" style="endArrow=none;html=1;rounded=0;dashed=1;" edge="1" parent="1">
          <mxGeometry width="50" height="50" relative="1" as="geometry">
            <mxPoint x="-80" y="200" as="sourcePoint" />
            <mxPoint x="922" y="200" as="targetPoint" />
          </mxGeometry>
        </mxCell>
        <mxCell id="KWE5zhtzk0raKSziC6Md-20" value="充值业务" style="text;html=1;align=center;verticalAlign=middle;whiteSpace=wrap;rounded=0;" vertex="1" parent="1">
          <mxGeometry x="-70" y="150" width="60" height="30" as="geometry" />
        </mxCell>
        <mxCell id="KWE5zhtzk0raKSziC6Md-22" value="" style="endArrow=classic;html=1;rounded=0;" edge="1" parent="1">
          <mxGeometry width="50" height="50" relative="1" as="geometry">
            <mxPoint x="200" y="220" as="sourcePoint" />
            <mxPoint x="400" y="220" as="targetPoint" />
          </mxGeometry>
        </mxCell>
        <mxCell id="KWE5zhtzk0raKSziC6Md-23" value="检查redis是否有钱包地址，并添加" style="edgeLabel;html=1;align=center;verticalAlign=middle;resizable=0;points=[];" vertex="1" connectable="0" parent="KWE5zhtzk0raKSziC6Md-22">
          <mxGeometry x="-0.23" y="1" relative="1" as="geometry">
            <mxPoint x="23" as="offset" />
          </mxGeometry>
        </mxCell>
        <mxCell id="KWE5zhtzk0raKSziC6Md-24" value="" style="endArrow=none;html=1;rounded=0;dashed=1;" edge="1" parent="1">
          <mxGeometry width="50" height="50" relative="1" as="geometry">
            <mxPoint x="-80" y="280" as="sourcePoint" />
            <mxPoint x="922" y="280" as="targetPoint" />
          </mxGeometry>
        </mxCell>
        <mxCell id="KWE5zhtzk0raKSziC6Md-25" value="主服务器启动" style="text;html=1;align=center;verticalAlign=middle;whiteSpace=wrap;rounded=0;" vertex="1" parent="1">
          <mxGeometry x="-100" y="230" width="90" height="30" as="geometry" />
        </mxCell>
        <mxCell id="KWE5zhtzk0raKSziC6Md-28" value="" style="endArrow=classic;html=1;rounded=0;" edge="1" parent="1">
          <mxGeometry width="50" height="50" relative="1" as="geometry">
            <mxPoint x="200" y="240" as="sourcePoint" />
            <mxPoint x="600" y="240" as="targetPoint" />
          </mxGeometry>
        </mxCell>
        <mxCell id="KWE5zhtzk0raKSziC6Md-29" value="循环请求待处理的充值订单/2s" style="edgeLabel;html=1;align=center;verticalAlign=middle;resizable=0;points=[];" vertex="1" connectable="0" parent="KWE5zhtzk0raKSziC6Md-28">
          <mxGeometry x="-0.23" y="1" relative="1" as="geometry">
            <mxPoint as="offset" />
          </mxGeometry>
        </mxCell>
        <mxCell id="KWE5zhtzk0raKSziC6Md-30" value="" style="endArrow=classic;html=1;rounded=0;" edge="1" parent="1">
          <mxGeometry width="50" height="50" relative="1" as="geometry">
            <mxPoint x="600" y="260" as="sourcePoint" />
            <mxPoint x="200" y="260" as="targetPoint" />
          </mxGeometry>
        </mxCell>
        <mxCell id="KWE5zhtzk0raKSziC6Md-31" value="获取到充值订单并处理" style="edgeLabel;html=1;align=center;verticalAlign=middle;resizable=0;points=[];" vertex="1" connectable="0" parent="KWE5zhtzk0raKSziC6Md-30">
          <mxGeometry x="-0.23" y="1" relative="1" as="geometry">
            <mxPoint x="-36" as="offset" />
          </mxGeometry>
        </mxCell>
        <mxCell id="KWE5zhtzk0raKSziC6Md-32" value="" style="endArrow=classic;html=1;rounded=0;" edge="1" parent="1">
          <mxGeometry width="50" height="50" relative="1" as="geometry">
            <mxPoint x="800" y="319.5" as="sourcePoint" />
            <mxPoint x="600" y="320" as="targetPoint" />
          </mxGeometry>
        </mxCell>
        <mxCell id="KWE5zhtzk0raKSziC6Md-33" value="收到通知" style="edgeLabel;html=1;align=center;verticalAlign=middle;resizable=0;points=[];" vertex="1" connectable="0" parent="KWE5zhtzk0raKSziC6Md-32">
          <mxGeometry x="-0.23" y="1" relative="1" as="geometry">
            <mxPoint x="-36" as="offset" />
          </mxGeometry>
        </mxCell>
        <mxCell id="KWE5zhtzk0raKSziC6Md-34" value="" style="endArrow=classic;html=1;rounded=0;" edge="1" parent="1">
          <mxGeometry width="50" height="50" relative="1" as="geometry">
            <mxPoint x="600" y="300" as="sourcePoint" />
            <mxPoint x="800" y="300" as="targetPoint" />
          </mxGeometry>
        </mxCell>
        <mxCell id="KWE5zhtzk0raKSziC6Md-35" value="监听" style="edgeLabel;html=1;align=center;verticalAlign=middle;resizable=0;points=[];" vertex="1" connectable="0" parent="KWE5zhtzk0raKSziC6Md-34">
          <mxGeometry x="-0.23" y="1" relative="1" as="geometry">
            <mxPoint as="offset" />
          </mxGeometry>
        </mxCell>
        <mxCell id="KWE5zhtzk0raKSziC6Md-39" value="" style="endArrow=classic;html=1;rounded=0;" edge="1" parent="1">
          <mxGeometry width="50" height="50" relative="1" as="geometry">
            <mxPoint x="600" y="340" as="sourcePoint" />
            <mxPoint x="400" y="340.5" as="targetPoint" />
          </mxGeometry>
        </mxCell>
        <mxCell id="KWE5zhtzk0raKSziC6Md-40" value="redis查询" style="edgeLabel;html=1;align=center;verticalAlign=middle;resizable=0;points=[];" vertex="1" connectable="0" parent="KWE5zhtzk0raKSziC6Md-39">
          <mxGeometry x="-0.23" y="1" relative="1" as="geometry">
            <mxPoint x="-36" as="offset" />
          </mxGeometry>
        </mxCell>
        <mxCell id="KWE5zhtzk0raKSziC6Md-43" value="" style="endArrow=classic;html=1;rounded=0;" edge="1" parent="1">
          <mxGeometry width="50" height="50" relative="1" as="geometry">
            <mxPoint x="400" y="360" as="sourcePoint" />
            <mxPoint x="600" y="360" as="targetPoint" />
          </mxGeometry>
        </mxCell>
        <mxCell id="KWE5zhtzk0raKSziC6Md-44" value="生成订单信息" style="edgeLabel;html=1;align=center;verticalAlign=middle;resizable=0;points=[];" vertex="1" connectable="0" parent="KWE5zhtzk0raKSziC6Md-43">
          <mxGeometry x="-0.23" y="1" relative="1" as="geometry">
            <mxPoint as="offset" />
          </mxGeometry>
        </mxCell>
        <mxCell id="KWE5zhtzk0raKSziC6Md-45" value="充值服务器运作" style="text;html=1;align=center;verticalAlign=middle;whiteSpace=wrap;rounded=0;" vertex="1" parent="1">
          <mxGeometry x="-90" y="320" width="90" height="30" as="geometry" />
        </mxCell>
        <mxCell id="KWE5zhtzk0raKSziC6Md-50" style="rounded=0;orthogonalLoop=1;jettySize=auto;html=1;exitX=0.5;exitY=1;exitDx=0;exitDy=0;dashed=1;" edge="1" parent="1" source="KWE5zhtzk0raKSziC6Md-49">
          <mxGeometry relative="1" as="geometry">
            <mxPoint x="480" y="260" as="targetPoint" />
          </mxGeometry>
        </mxCell>
        <mxCell id="KWE5zhtzk0raKSziC6Md-49" value="充值服务器要对订单列表做单线程锁" style="rounded=1;whiteSpace=wrap;html=1;dashed=1;fillColor=#E6E6E6;" vertex="1" parent="1">
          <mxGeometry x="450" y="10" width="120" height="60" as="geometry" />
        </mxCell>
      </root>
    </mxGraphModel>
  </diagram>
</mxfile>
